<svg version="1.1" class="wire-wrapper" xmlns="http://www.w3.org/2000/svg" xmlns:xlink="http://www.w3.org/1999/xlink" x="0px" y="0px" viewBox="0 0 911.9 505.5" style="display: block;" xml:space="preserve">
                
                <g>

                    
                    <g>
                        <ellipse cx="368.8" cy="94" rx="32" ry="19.7"></ellipse>
                        <path d="M417.1,95c0,15.5-21.6,28-48.3,28c-24.6,0-44.8-10.6-47.9-24.4c-0.3-1.2-0.4-2.4-0.4-3.6
			c0-15.5,21.6-28,48.3-28S417.1,79.5,417.1,95z" style="stroke-dasharray: 245, 245; stroke-dashoffset: 0;"></path>
                        <path d="M320.4,91.8c-3.3,8.7-0.8,22.8,7.7,31.2c9.2,9,21.1,11.7,40.7,11.7c23.9,0,34.7-4.1,41.6-12.4
			c3.9-4.6,10-19.6,6.7-28.3" style="stroke-dasharray: 153, 153; stroke-dashoffset: 0;"></path>
                        <path d="M349.1,133.7v9.7c0,0,11.3,11,35,2" style="stroke-dasharray: 47, 47; stroke-dashoffset: 0;"></path>
                        <path d="M416.4,109.7c3.6,4.9,5.7,10.4,5.7,16.2c0,19.8-23.7,35.9-53,35.9c-29.3,0-53-16.1-53-35.9
			c0-4.8,2.4-9.4,4.9-13.6" style="stroke-dasharray: 174, 174; stroke-dashoffset: 0;"></path>
                        <path d="M416.4,99.9c18,9.4,31.1,23.7,31.1,39.8c0,28.3-35.2,49.3-78.7,49.3c-43.4,0-78.7-22.9-78.7-51.2
			c0-16,11.3-30.3,29-39.7" style="stroke-dasharray: 311, 311; stroke-dashoffset: 0;"></path>
                    </g>
                    
                    <g>
                        <ellipse cx="626.4" cy="28" rx="32" ry="19.7"></ellipse>
                        <path d="M674.7,29c0,15.5-21.6,28-48.3,28c-24.6,0-44.8-10.6-47.9-24.4c-0.3-1.2-0.4-2.4-0.4-3.6
			c0-15.5,21.6-28,48.3-28C653.1,1,674.7,13.5,674.7,29z" style="stroke-dasharray: 245, 245; stroke-dashoffset: 0;"></path>
                        <path d="M578,25.8c-3.3,8.7-0.8,22.8,7.7,31.2c9.2,9,21.1,11.7,40.7,11.7c23.9,0,34.7-4.1,41.6-12.4
			c3.9-4.6,10-19.6,6.7-28.3" style="stroke-dasharray: 153, 153; stroke-dashoffset: 0;"></path>
                        <path d="M606.7,67.7v9.7c0,0,11.3,11,35,2" style="stroke-dasharray: 47, 47; stroke-dashoffset: 0;"></path>
                        <path d="M674,43.7c3.6,4.9,5.7,10.4,5.7,16.2c0,19.8-23.7,35.9-53,35.9s-53-16.1-53-35.9c0-4.8,2.4-9.4,4.9-13.6" style="stroke-dasharray: 174, 174; stroke-dashoffset: 0;"></path>
                        <path d="M684.3,106.4c-14.4,10.2-35,16.6-58,16.6c-43.4,0-78.7-22.9-78.7-51.2c0-16,11.3-30.3,29-39.7" style="stroke-dasharray: 217, 217; stroke-dashoffset: 0;"></path>
                        <path d="M675.5,31.9c17,8.8,28.2,22.2,29.4,37.2c0.1,0.9,0.1,1.8,0.1,2.7" style="stroke-dasharray: 53, 53; stroke-dashoffset: 0;"></path>
                    </g>
                    
                    <g>
                        <polygon points="748.4,215.2 780.3,207.2 783.4,215.2 750.1,224 		"></polygon>
                        <polygon points="404.6,306.9 455.5,295 457.3,302.9 407.1,314.7 		"></polygon>
                        <path d="M754.4,171.1c-4.8-4.2-20.9-5.6-21,7.9c0,3.7,11.9,18.8,11.9,18.8s2.3,3.6,3.3,4.5c3.2,3.1,14.3,7.3,17.2-5.3
			c0.3-1.5,0.4-4.6,0-6C764.3,185.5,758.7,174.9,754.4,171.1z" style="stroke-dasharray: 108, 108; stroke-dashoffset: 0;"></path>
                        <path d="M425,258.2c-5-4.4-22.7-6.7-22.8,7.2c0,3.8,13.4,20.4,13.4,20.4s2.4,3.7,3.4,4.7c3.3,3.2,18.1,3.4,17.8-5.5
			c-0.1-1.6,0.4-4.7,0-6.2C435.3,273.1,429.5,262.1,425,258.2z" style="stroke-dasharray: 113, 113; stroke-dashoffset: 0;"></path>
                    </g>
                    
                    <path d="M415.8,392.8c2.8-2.7,10.4-6.5,26.7-7.4c23.6-1.3,101.4-4.5,123.3-9c27-5.5,153-67,172-74.5
		c19-7.5,28.3-1,28.3-1s36.1,24.5,38.7,34.8c0.1,0.4-2.3,7.7-2.1,8.1c0.3,0.6,0.5,1.2,0.8,1.8c13,25,27.9,24.6,34.8,24.8
		c11.2,0.5,16.3-3.7,30.5-28.7c7.1-12.5,15.1-32.7,21.5-49.8c0,0-32,25.8-84.9,15.8c0,0,2,24.6-2.5,36.4" style="stroke-dasharray: 702, 702; stroke-dashoffset: 0;"></path>
                    
                    <path d="M903.9,247c0,0-4.3-27.2-51.6-15.7c-47.2,11.5-47,68.3-47,68.3l-5.9-13.9c0,0-1.7-20.6,0-27.1
		c2.7-10,10.3-31.5,54.7-43.1c38.3-10,49.2,6.5,53,20.4" style="stroke-dasharray: 330, 330; stroke-dashoffset: 0;"></path>
                    
                    <path d="M411.8,381.3c0,0-4.8-27.4-57.1-15.7c-57,12.8-52,68.3-52,68.3l-6.5-13.9c0,0-1.9-20.6,0-27.1
		c2.9-10,11.4-31.5,60.5-43.1c42.4-10,54.4,6.5,58.7,20.4c0,0,15.7,54-56.1,63.7c-12.5,1.7-23.5,7-56.5,0" style="stroke-dasharray: 504, 504; stroke-dashoffset: 0;"></path>
                    
                    <path d="M308,445.2c57.4,18.1,96.6-13.4,96.6-13.4s-2.8,17-15.8,49.5s-50,27.5-60,5s-21.5-42-21.5-42l-4.5-10.4" style="stroke-dasharray: 289, 289; stroke-dashoffset: 0;"></path>
                    <path d="M405.2,413.7c0,0,2.1,13.5-4.3,21.6" style="stroke-dasharray: 23, 23; stroke-dashoffset: 0;"></path>
                    <g>
                        <path d="M693.6,105.9c0-35.5,46-61.3,102.7-61.3c49.8,0,100.7,38.1,100.7,61.3c0,35.5-24.3,64.3-100.7,64.3
			C739.6,170.1,693.6,141.4,693.6,105.9z" style="stroke-dasharray: 525, 525; stroke-dashoffset: 0;"></path>
                        <path d="M804.8,109.4l10-17.5l26-14.3c0,0,6.2-3.2,12.1,5.3c5.9,8.5,7.9,11.1,7.9,11.1s-0.5,3.6-2.9,4.2
			c-2.4,0.5-31.1,13.5-31.1,13.5L804.8,109.4z" style="stroke-dasharray: 140, 140; stroke-dashoffset: 0;"></path>
                        <polyline points="860.8,94 859.4,108 828.6,115.3 804.8,109.4 		"></polyline>
                        <path d="M793.1,104.7l8-21.8l-13.3-20.2c0,0-28.3-10.4-38,12.6l16.2,20.5L793.1,104.7z" style="stroke-dasharray: 147, 147; stroke-dashoffset: 0;"></path>
                        <polyline points="749.8,75.3 749.8,87.2 763.4,101 793.1,104.7 		"></polyline>
                        <path d="M787.1,111.7l-25.3-4.3h-31.7c0,0-3.3,3.3,0,6.3c3.3,3,13.5,13,13.5,13s1.5,2.4,6.2,1.5
			c3-0.6,19.9-0.7,25.7-3.8C779.2,122.3,787.1,111.7,787.1,111.7z" style="stroke-dasharray: 134, 134; stroke-dashoffset: 0;"></path>
                        <polyline points="728.6,110.6 728.6,123 745.1,140.3 		"></polyline>
                        <path d="M787.1,111.7c0,0-5.4,15.7-9.1,19.6c-0.9,1-3.6,2.1-4.8,2.6c-6.7,2.5-28,6.5-28,6.5v-12.4" style="stroke-dasharray: 69, 69; stroke-dashoffset: 0;"></path>
                        <path d="M793.1,130.3l11.7,13.7c0,0,2.3,1.3,6.3,0s30.7-9,30.7-9s3-2,0-3.7c-3-1.7-18.3-8.3-18.3-8.3l-22.3-5.1
			L793.1,130.3z" style="stroke-dasharray: 119, 119; stroke-dashoffset: 0;"></path>
                        <path d="M792.8,130.3v9l13.7,17c0,0,24.3,4.3,36.7-12v-10" style="stroke-dasharray: 82, 82; stroke-dashoffset: 0;"></path>
                        <line x1="806.4" y1="156.3" x2="806.8" y2="145"></line>
                    </g>

                    <ellipse cx="495.8" cy="121" rx="23.3" ry="9.3"></ellipse>
                    <g>
                        <ellipse cx="497.9" cy="154.3" rx="3.5" ry="2.7"></ellipse>
                        <ellipse cx="511.8" cy="151.7" rx="3.5" ry="2.7"></ellipse>
                        <ellipse cx="502.4" cy="145.5" rx="3.5" ry="2.4"></ellipse>
                        <ellipse cx="526.8" cy="148.9" rx="3.5" ry="2.7"></ellipse>
                        <ellipse cx="515.6" cy="142.4" rx="3.5" ry="2.4"></ellipse>
                        <ellipse cx="540.2" cy="145.2" rx="3.5" ry="2.7"></ellipse>
                        <ellipse cx="528.1" cy="139.5" rx="3.5" ry="2.4"></ellipse>
                        <ellipse cx="553.2" cy="140.4" rx="3.5" ry="2.7"></ellipse>
                        <ellipse cx="541.2" cy="136.1" rx="3.5" ry="2.4"></ellipse>
                    </g>
                    <g>
                        <path class="controller-light" d="M717.8,285.8c-55,11.5-236.3,59.4-257,72.5c-6.3,4-1.8,10,9,8c32.4-6,113.7-18.1,139.7-28.6
			s78.1-25.5,108.3-43.4C728.6,287.9,719.8,285.4,717.8,285.8z" style="stroke-dasharray: 561, 561; stroke-dashoffset: 0; fill: rgba(0, 159, 214, 0.294);"></path>
                        <g>
                            <path d="M676.8,138.3c0,0-11-16-30-8s-224,57-224,57s-20,9-8,23s38,53,38,53s10,8,12,26s2.7,29.7,6,39
				c1.8,4.9,6,11,19,9s233-63,233-63s15.2-5.4,15-28c-0.1-8.5-8.1-31.1-13.4-43.3C718.3,188.8,676.8,138.3,676.8,138.3z" style="stroke-dasharray: 853, 853; stroke-dashoffset: 0;"></path>
                            <g>
                                <line x1="528.1" y1="242.7" x2="719.6" y2="194.6"></line>
                                <line x1="583.4" y1="238.7" x2="724.4" y2="203"></line>
                            </g>
                        </g>
                        <path d="M442.4,119.9l93-24.1c0,0,1.5-27.7,16.8-41.2" style="stroke-dasharray: 142, 142; stroke-dashoffset: 0;"></path>
                        <path d="M674.7,24c0,0,85.1-55.1,171.3,31.9" style="stroke-dasharray: 189, 189; stroke-dashoffset: 0;"></path>
                        <path d="M897,111.7c0,0,22.2,61.4,10.4,122.7c-0.1,0.5-0.2,1.1-0.3,1.6l-10.6,36.5c-46.7,37-91.7,26.2-91.7,26.2" style="stroke-dasharray: 263, 263; stroke-dashoffset: 0;"></path>
                        <path d="M735.8,259.2l13.9-5.7c0,0,19-7.3,29.7,2.5l19.2,13.2" style="stroke-dasharray: 70, 70; stroke-dashoffset: 0;"></path>
                        <path d="M255.9,174.1c0,0-54.7-0.8-92.7-9.3s-196.7,7.5-155.5,121c32.5,89.5,185,99,185,99s22,3,45.5,20.5
			s54.5,42.5,54.5,42.5s9.9,3.2,15.3-2.6" style="stroke-dasharray: 691, 691; stroke-dashoffset: 0;"></path>
                        <path d="M103.3,166.1c-62.1,7.4-89.2,76.3-68.6,111.3c22.5,38.1,89.3,55.3,103.3,60.3c14,5.1,63.5,25.5,78.2,33.6
			c14.7,8.1,71,38,71,38h8" style="stroke-dasharray: 448, 448; stroke-dashoffset: 0;"></path>
                        <path d="M471.3,329.6c0,0-32.9,1.7-44,23.2c0,0-1.8,8.8-11.9,17.4" style="stroke-dasharray: 74, 74; stroke-dashoffset: 0;"></path>
                        <path d="M291.5,128.1c0,0-12.1,20.8-14.4,42" style="stroke-dasharray: 45, 45; stroke-dashoffset: 0;"></path>
                        <path d="M890.3,277.1c0,0,2.3,8.3-3,16.8" style="stroke-dasharray: 18, 18; stroke-dashoffset: 0;"></path>
                    </g>
                    <g>
                        <path d="M398.5,224.7c1.5,4.5,2.2,9.2,2.2,13.9c0,37.9-48.4,68.7-108,68.7c-59.6,0-108-30.7-108-68.7
			c0-36.5,44.8-66.4,101.3-68.5" style="stroke-dasharray: 429, 429; stroke-dashoffset: 0;"></path>
                        <g>
                            <ellipse cx="324.8" cy="273.1" rx="29.1" ry="19.9"></ellipse>
                            <path d="M352.8,278.5c0,11-11.9,18.7-28,18.7c-16.1,0-28.5-8.9-28.5-19.9" style="stroke-dasharray: 76, 76; stroke-dashoffset: 0;"></path>
                            <polygon points="306.1,270.8 330.3,259.7 335.6,283 			"></polygon>
                        </g>
                        <g>
                            <ellipse cx="355" cy="220.7" rx="29.1" ry="19.9"></ellipse>
                            <path d="M383,226.2c0,11-11.9,18.7-28,18.7c-16.1,0-28.5-8.9-28.5-19.9" style="stroke-dasharray: 76, 76; stroke-dashoffset: 0;"></path>
                            <polygon points="356.3,207.5 334.6,218.6 352.8,232.9 376.1,220.8 			"></polygon>
                        </g>
                        <g>
                            <ellipse cx="267.6" cy="198.7" rx="29.1" ry="19.9"></ellipse>
                            <path d="M295.7,204.2c0,11-11.9,18.7-28,18.7c-16.1,0-28.5-8.9-28.5-19.9" style="stroke-dasharray: 76, 76; stroke-dashoffset: 0;"></path>
                            <line x1="265.3" y1="210.2" x2="269.6" y2="186.5"></line>
                            <line x1="284.3" y1="198.7" x2="251.6" y2="194.6"></line>
                        </g>
                        <g>
                            <ellipse cx="235.3" cy="251.1" rx="29.1" ry="19.9"></ellipse>
                            <path d="M263.3,256.5c0,11-11.9,18.7-28,18.7c-16.1,0-28.5-8.9-28.5-19.9" style="stroke-dasharray: 76, 76; stroke-dashoffset: 0;"></path>
                            <ellipse cx="234.7" cy="250.1" rx="15.6" ry="11.4"></ellipse>
                        </g>
                    </g>
                </g>
            </svg>